<svg version="1.1" xmlns="http://www.w3.org/2000/svg" viewBox="0 0 250 250"><desc>Created with Snap</desc><defs></defs><g transform="matrix(0.0277,0,0,0.0277,79.3106,141.289)"><rect x="-2858.7082407892162" y="-4209.968502722284" width="9011.111776600106" height="7245.67973007027" fill="#1effbc" style=""></rect><g transform="matrix(21.1139,0,0,21.1139,-2576.3176,-4588.9725)">
<g id="gSldw2ynp7z">
	<g>
		<path d="M162.71262,346.57227c-14.57422,0.00098-26.57324-0.58203-34.60059-1.12695
			c-43.97167-2.98145-97.11523-10.67871-117.94823-44.00879c-12.57422-20.11719-11.95312-47.54297,1.84473-81.51465
			c10.75293-26.47314,66.19141-80.56641,82.92578-96.51514c40.24706-38.35449,79.8789-70.68994,96.37695-78.63379l1.08496,2.25244
			l-1.08496-2.25244c24.00977-11.56006,50.65137-15.04297,77.04883-10.06885c24.47852,4.61182,48.42383,16.30225,69.24707,33.80713
			c23.28809,19.57715,41.71094,45.91064,51.87402,74.1499c11.04004,30.67285,12.3623,62.81934,3.82422,92.96387
			c-12.95508,45.74023-50.76758,78.02441-112.38672,95.95703C239.05637,343.76465,194.69406,346.57227,162.71262,346.57227z
			 M244.99973,37.46191c-17.61816,0-35.0625,3.89209-51.51855,11.81592C159.5759,65.60254,32.40207,182.99951,16.64133,221.80273
			c-13.16113,32.40234-13.91406,58.30371-2.2373,76.9834c19.63281,31.41113,71.26172,38.76953,114.04589,41.6709
			c25.37988,1.7207,90.90137,3.83496,151.07227-13.67578c59.85449-17.41895,96.51855-48.54688,108.97266-92.51953
			c8.25098-29.13379,6.96582-60.22314-3.71777-89.90771c-9.86914-27.42139-27.76367-52.99707-50.38672-72.01514
			C307.01828,49.32959,275.7507,37.46191,244.99973,37.46191z" fill="#292929" style=""></path>
	</g>
</g>


<desc>Created with Snap</desc><defs></defs></g><g><g transform="matrix(1.024,0,0,-1.024,0,0)"><path d="M232 -5Q195 -5 179 11Q163 28 163 74Q163 105 169 153Q176 202 191 287Q217 444 232 559Q241 631 241 679Q241 724 208 724Q182 724 145 697Q109 671 65 613Q51 594 34 594Q20 594 9 607Q-1 621 -1 638Q-1 654 5 670Q12 687 27 708Q75 775 134 811Q193 848 252 848Q307 848 336 813Q366 778 366 711Q366 684 361 647Q356 611 352 588Q348 565 346 556Q403 719 474 783Q545 848 630 848Q695 848 732 802Q770 756 770 672Q770 639 761 590Q811 728 878 788Q945 848 1032 848Q1102 848 1139 803Q1177 758 1177 677Q1177 633 1164 570L1103 284Q1093 234 1093 198Q1093 156 1112 135Q1132 114 1167 114Q1200 114 1231 136Q1263 158 1306 209Q1318 223 1333 223Q1346 223 1353 211Q1361 199 1361 178Q1361 139 1342 116Q1290 53 1239 24Q1188 -5 1132 -5Q1047 -5 999 45Q951 96 951 181Q951 240 975 352L1015 535Q1017 544 1022 567Q1027 590 1030 610Q1033 631 1033 651Q1033 686 1019 703Q1006 721 981 721Q934 721 882 660Q831 600 784 460Q738 320 709 96Q702 36 684 15Q667 -5 628 -5Q594 -5 578 11Q563 27 563 71Q563 112 574 178Q585 245 602 335Q648 577 648 647Q648 685 633 703Q619 721 590 721Q541 721 489 665Q437 610 387 468Q338 327 305 86Q298 35 284 15Q271 -5 232 -5ZM1726 223Q1739 223 1746 211Q1754 199 1754 178Q1754 138 1735 116Q1698 71 1630 33Q1563 -5 1486 -5Q1381 -5 1323 52Q1265 109 1265 208Q1265 277 1294 336Q1323 396 1374 431Q1426 466 1491 466Q1549 466 1584 431Q1619 397 1619 338Q1619 269 1569 219Q1520 170 1402 141Q1427 95 1497 95Q1542 95 1599 126Q1657 158 1699 209Q1711 223 1726 223ZM1474 368Q1437 368 1411 325Q1386 282 1386 221L1386 219Q1445 233 1479 261Q1513 289 1513 326Q1513 345 1502 356Q1492 368 1474 368ZM2241 223Q2254 223 2261 211Q2269 199 2269 178Q2269 138 2250 116Q2209 66 2160 30Q2111 -5 2063 -5Q1987 -5 1947 84Q1905 31 1873 13Q1842 -5 1800 -5Q1739 -5 1699 40Q1660 86 1660 159Q1660 239 1694 307Q1728 376 1787 419Q1847 463 1921 471Q1940 665 1993 802Q2047 940 2134 940Q2177 940 2205 901Q2234 862 2234 783Q2234 671 2179 521Q2124 371 2032 213Q2036 155 2049 130Q2063 105 2084 105Q2111 105 2139 129Q2167 153 2214 209Q2226 223 2241 223ZM2123 842Q2104 842 2085 774Q2066 707 2052 598Q2039 489 2033 370Q2145 614 2145 762Q2145 800 2138 821Q2132 842 2123 842ZM1835 96Q1854 96 1873 111Q1892 127 1921 169Q1911 223 1911 290Q1911 314 1913 368Q1858 351 1821 294Q1785 238 1785 169Q1785 96 1835 96ZM2634 223Q2647 223 2654 211Q2662 199 2662 178Q2662 138 2643 116Q2600 63 2549 29Q2498 -5 2432 -5Q2228 -5 2228 282Q2228 326 2231 371L2192 371Q2162 371 2151 382Q2141 393 2141 417Q2141 473 2186 473L2243 473Q2260 583 2295 674Q2330 765 2379 819Q2429 873 2486 873Q2528 873 2552 836Q2576 799 2576 743Q2576 588 2446 473L2558 473Q2574 473 2581 466Q2588 459 2588 440Q2588 371 2475 371L2353 371Q2351 321 2351 293Q2351 189 2375 147Q2400 105 2453 105Q2496 105 2529 131Q2562 157 2607 209Q2619 223 2634 223ZM2459 777Q2444 777 2425 739Q2407 702 2390 635Q2374 569 2363 488Q2422 539 2451 602Q2481 666 2481 718Q2481 777 2459 777ZM3027 223Q3040 223 3047 211Q3055 199 3055 178Q3055 138 3036 116Q2999 71 2931 33Q2864 -5 2787 -5Q2682 -5 2624 52Q2566 109 2566 208Q2566 277 2595 336Q2624 396 2675 431Q2727 466 2792 466Q2850 466 2885 431Q2920 397 2920 338Q2920 269 2870 219Q2821 170 2703 141Q2728 95 2798 95Q2843 95 2900 126Q2958 158 3000 209Q3012 223 3027 223ZM2775 368Q2738 368 2712 325Q2687 282 2687 221L2687 219Q2746 233 2780 261Q2814 289 2814 326Q2814 345 2803 356Q2793 368 2775 368ZM3165 -5Q3067 -5 3012 50Q2958 106 2958 197Q2958 278 2990 339Q3022 400 3073 433Q3124 466 3180 466Q3235 466 3265 433Q3296 401 3296 350Q3296 308 3277 279Q3259 250 3229 250Q3210 250 3198 259Q3187 268 3187 284Q3187 291 3189 300Q3191 309 3192 313Q3197 328 3197 341Q3197 354 3190 361Q3184 368 3172 368Q3149 368 3129 347Q3109 327 3097 292Q3085 257 3085 215Q3085 99 3186 99Q3227 99 3274 126Q3322 154 3368 209Q3380 223 3395 223Q3408 223 3415 211Q3423 199 3423 178Q3423 140 3404 116Q3357 58 3291 26Q3226 -5 3165 -5ZM3897 223Q3910 223 3917 211Q3925 199 3925 178Q3925 138 3906 116Q3860 63 3811 29Q3763 -5 3701 -5Q3650 -5 3624 24Q3598 54 3598 110Q3598 138 3612 210Q3625 273 3625 297Q3625 313 3614 313Q3601 313 3577 279Q3553 246 3529 191Q3505 136 3490 75Q3471 -5 3396 -5Q3366 -5 3356 16Q3347 38 3347 94Q3347 126 3348 145L3349 225Q3349 379 3380 546Q3412 713 3473 826Q3535 940 3621 940Q3667 940 3695 900Q3724 861 3724 798Q3724 697 3665 588Q3606 480 3473 335Q3470 283 3470 228Q3503 313 3543 366Q3584 420 3623 443Q3663 466 3696 466Q3761 466 3761 401Q3761 362 3739 260Q3720 173 3720 145Q3720 105 3749 105Q3769 105 3796 129Q3824 154 3870 209Q3882 223 3897 223ZM3600 841Q3582 841 3560 789Q3538 738 3517 650Q3497 563 3484 460Q3546 533 3586 619Q3627 705 3627 775Q3627 807 3620 824Q3613 841 3600 841Z" fill="#292929" style=""></path></g></g><g transform="matrix(0.75,0,0,0.75,-873.9841,859.136)"><g transform="matrix(1.024,0,0,-1.024,0,0)"><path d="M704 247L796 646Q775 649 754 655Q733 662 710 671L710 700L934 700L934 671Q900 656 862 646L695 0L633 -12L472 532L314 0L253 -12L76 646Q56 651 37 657Q18 663 0 671L0 700L260 700L260 671Q241 664 221 657Q201 651 178 646L277 243L299 113L301 113L336 245L471 700L505 700L650 245L679 115L681 115L704 247ZM963 700L1437 700Q1436 660 1433 619Q1431 579 1426 538L1400 538L1359 648L1141 648L1141 383L1304 383L1343 457L1368 457Q1374 358 1368 255L1343 255L1304 331L1141 331L1141 52L1371 52L1420 172L1445 172Q1452 130 1455 87Q1458 44 1456 0L963 0L963 29Q998 45 1045 53L1045 646Q1025 650 1004 656Q983 663 963 671L963 700ZM2259 58L2306 182L2332 182Q2337 154 2341 111Q2345 69 2343 29Q2328 17 2307 9Q2286 2 2262 -3Q2239 -8 2214 -10Q2190 -12 2168 -12Q2084 -12 2018 9Q1952 31 1906 75Q1861 119 1836 187Q1812 256 1812 350Q1812 448 1839 516Q1866 585 1912 628Q1958 672 2019 692Q2080 712 2147 712Q2213 712 2258 703Q2303 695 2337 678Q2337 662 2336 640Q2335 619 2333 595Q2331 571 2328 548Q2325 525 2322 506L2296 506L2244 650Q2233 656 2207 658Q2182 660 2157 660Q2107 660 2062 641Q2018 623 1984 584Q1951 546 1931 487Q1911 429 1911 350Q1911 279 1929 221Q1947 164 1981 123Q2015 83 2064 61Q2113 40 2175 40Q2208 40 2230 45Q2252 50 2259 58ZM2813 131Q2813 109 2814 93Q2815 77 2816 59L2885 49L2885 28Q2860 15 2829 5Q2799 -5 2771 -10L2746 -10Q2736 13 2734 40Q2732 68 2731 101L2726 101Q2722 81 2710 60Q2699 40 2680 24Q2662 8 2637 -2Q2612 -12 2580 -12Q2519 -12 2480 25Q2442 62 2442 122Q2442 168 2460 197Q2479 227 2515 244Q2551 261 2604 268Q2657 276 2727 280Q2731 323 2729 357Q2728 392 2718 416Q2709 441 2690 454Q2672 468 2642 468Q2628 468 2610 466Q2593 465 2576 458L2529 338L2503 338Q2493 368 2485 400Q2478 432 2476 463Q2514 486 2560 499Q2607 512 2664 512Q2715 512 2745 497Q2776 483 2792 460Q2808 437 2813 409Q2818 381 2818 353Q2818 293 2815 237Q2813 182 2813 131ZM2620 50Q2645 50 2664 60Q2683 70 2696 84Q2709 98 2717 112Q2725 127 2728 137L2728 242Q2670 242 2633 236Q2596 230 2575 217Q2554 204 2546 184Q2538 165 2538 140Q2538 97 2560 73Q2582 50 2620 50ZM3285 425L3152 425Q3141 419 3124 400Q3108 382 3095 346L3095 49Q3115 47 3135 41Q3155 36 3175 25L3175 0L2939 0L2939 25Q2957 35 2973 40Q2989 45 3005 49L3005 442L2939 450L2939 476Q2971 490 3005 498Q3039 507 3070 512L3095 512L3095 406L3099 406Q3108 426 3124 446Q3141 466 3162 482Q3184 498 3209 506Q3235 515 3262 512Q3269 499 3274 483Q3280 468 3285 451L3285 425ZM3724 86L3738 70Q3730 53 3713 38Q3696 23 3674 12Q3652 1 3626 -6Q3600 -12 3573 -12Q3514 -12 3469 6Q3424 25 3394 59Q3364 94 3348 142Q3333 190 3333 250Q3333 378 3392 445Q3451 512 3559 512Q3594 512 3628 502Q3662 493 3688 471Q3715 449 3731 412Q3748 376 3748 322Q3748 305 3746 287Q3745 270 3741 250L3429 250Q3429 208 3439 171Q3450 135 3471 108Q3492 81 3524 65Q3556 50 3599 50Q3634 50 3670 60Q3706 70 3724 86ZM3555 468Q3498 468 3468 429Q3438 391 3432 294L3652 294Q3653 303 3653 311Q3654 320 3654 328Q3654 392 3630 430Q3606 468 3555 468ZM4235 312L4235 53Q4279 47 4321 29L4321 0L4067 0L4067 29Q4084 37 4102 43Q4120 49 4139 53L4139 646Q4117 651 4099 657Q4081 664 4067 671L4067 700L4536 700Q4535 661 4532 620Q4530 579 4525 538L4499 538L4458 648L4235 648L4235 363L4408 363L4449 437L4472 437Q4474 414 4475 388Q4476 363 4476 337Q4476 310 4475 284Q4474 258 4472 235L4449 235L4408 312L4235 312ZM4623 250Q4623 313 4639 361Q4656 410 4687 443Q4718 477 4761 494Q4805 512 4858 512Q4920 512 4965 493Q5010 474 5038 439Q5067 405 5080 357Q5094 309 5094 250Q5094 124 5030 56Q4966 -12 4858 -12Q4798 -12 4754 6Q4710 25 4681 59Q4652 94 4637 142Q4623 191 4623 250ZM4719 250Q4719 205 4727 165Q4736 125 4754 95Q4773 66 4803 49Q4833 32 4875 32Q4929 32 4963 85Q4998 138 4998 250Q4998 296 4989 335Q4981 375 4963 404Q4945 434 4917 451Q4889 468 4850 468Q4791 468 4755 415Q4719 362 4719 250ZM5512 425L5379 425Q5368 419 5351 400Q5335 382 5322 346L5322 49Q5342 47 5362 41Q5382 36 5402 25L5402 0L5166 0L5166 25Q5184 35 5200 40Q5216 45 5232 49L5232 442L5166 450L5166 476Q5198 490 5232 498Q5266 507 5297 512L5322 512L5322 406L5326 406Q5335 426 5351 446Q5368 466 5389 482Q5411 498 5436 506Q5462 515 5489 512Q5496 499 5501 483Q5507 468 5512 451L5512 425ZM6186 671L6186 700L6406 700L6406 671Q6368 652 6330 646L6141 298L6141 53Q6180 48 6217 29L6217 0L5963 0L5963 29Q5999 47 6045 53L6045 297L5843 646Q5820 650 5800 656Q5781 663 5762 671L5762 700L6027 700L6027 671Q6012 665 5993 658Q5974 652 5950 646L6114 352L6268 646Q6245 651 6224 657Q6204 664 6186 671ZM6447 250Q6447 313 6463 361Q6480 410 6511 443Q6542 477 6585 494Q6629 512 6682 512Q6744 512 6789 493Q6834 474 6862 439Q6891 405 6904 357Q6918 309 6918 250Q6918 124 6854 56Q6790 -12 6682 -12Q6622 -12 6578 6Q6534 25 6505 59Q6476 94 6461 142Q6447 191 6447 250ZM6543 250Q6543 205 6551 165Q6560 125 6578 95Q6597 66 6627 49Q6657 32 6699 32Q6753 32 6787 85Q6822 138 6822 250Q6822 296 6813 335Q6805 375 6787 404Q6769 434 6741 451Q6713 468 6674 468Q6615 468 6579 415Q6543 362 6543 250ZM7036 198Q7036 261 7039 321Q7042 382 7042 442L6976 450L6976 476Q7008 488 7041 497Q7075 506 7107 512L7132 512Q7132 437 7129 363Q7126 289 7126 216Q7126 177 7130 146Q7135 115 7146 94Q7158 73 7178 61Q7198 50 7229 50Q7274 50 7304 82Q7335 115 7352 167L7352 442L7287 450L7287 476Q7318 488 7351 497Q7385 506 7417 512L7442 512L7442 57L7508 49L7508 28Q7479 15 7449 5Q7420 -5 7388 -10L7363 -10L7356 109L7352 109Q7347 88 7334 66Q7322 45 7302 27Q7282 10 7256 -1Q7231 -12 7201 -12Q7161 -12 7130 -3Q7100 7 7079 31Q7058 55 7047 95Q7036 136 7036 198Z" fill="#292929" style=""></path></g></g></g></svg>